<?xml version="1.0" encoding="utf-8"?>
<!-- Generator: Adobe Illustrator 23.0.1, SVG Export Plug-In . SVG Version: 6.00 Build 0)  -->
<svg version="1.1" id="Layer_1" xmlns="http://www.w3.org/2000/svg" xmlns:xlink="http://www.w3.org/1999/xlink" x="0px" y="0px"
	 viewBox="0 0 1024 1024" style="enable-background:new 0 0 1024 1024;" xml:space="preserve">
<style type="text/css">
	.st0{fill:#212121;}
	.st1{fill:#FFFFFF;}
	.st2{fill:#00C470;}
	.st3{fill:#2185DA;}
	.st4{fill:#FF6258;}
</style>
<rect class="st0" width="1024" height="1024"/>
<g>
	<g>
		<g>
			<g>
				<path class="st1" d="M627.68,649.27c0,9.34,5.26,13.89,16.04,13.89h58.66c10.55,0,15.81-4.55,16.05-13.89v-53.16l-90.75,4.79
					V649.27z M681,333.17h-108.7c-9.11,0-14.85,4.31-16.77,12.69l-37.59,136.24c-0.25,1.44-0.96,2.4-1.68,3.11
					c-0.96,0.48-1.67,0.48-2.63,0c-0.71-0.71-1.44-1.67-1.67-3.11l-37.6-136.24c-1.92-8.38-7.66-12.69-16.75-12.69H348.9
					c-10.53,0-15.81,4.55-16.04,14.12v177.19l90.74,1.92v-63.94c0-2.64,1.2-3.59,3.6-3.11c0.96,0.24,1.67,1.2,1.92,2.63l20.34,64.89
					l130.02,2.88l21.31-67.76c0.48-2.16,1.92-2.87,4.07-2.16c0.96,0.25,1.44,1.2,1.44,2.64v68l90.75,1.92V347.3
					C697.06,337.96,691.55,333.17,681,333.17z M501.73,627.25c1.92,7.9,7.67,11.97,17.25,11.97h34.71c9.59,0,15.33-4.07,17.25-11.97
					l7.42-23.7l-82.61,4.55L501.73,627.25z M354.24,646.6c0,9.34,5.51,13.89,16.04,13.89h58.66c10.55,0,15.81-4.55,16.04-13.89
					v-38.55l-90.74,4.79V646.6z"/>
			</g>
		</g>
		<polygon class="st1" points="230.27,546.15 872.53,560.07 229.06,594.55 		"/>
		<circle class="st1" cx="250.43" cy="568.88" r="54.49"/>
	</g>
</g>
</svg>
